<?xml version="1.0" encoding="UTF-8" standalone="no"?>
<svg width="16px" height="16px" viewBox="0 0 16 16" version="1.1" xmlns="http://www.w3.org/2000/svg" xmlns:xlink="http://www.w3.org/1999/xlink">
    <!-- Generator: Sketch 41.2 (35397) - http://www.bohemiancoding.com/sketch -->
    <title>全屏</title>
    <desc>Created with Sketch.</desc>
    <defs></defs>
    <g id="Page-1" stroke="none" stroke-width="1" fill="none" fill-rule="evenodd" opacity="0.800000012">
        <g id="播放页" transform="translate(-1551.000000, -541.000000)" stroke="#CCCCCC">
            <g id="全屏" transform="translate(1543.000000, 532.000000)">
                <g id="全屏-copy" transform="translate(16.617009, 17.500000) rotate(-315.000000) translate(-16.617009, -17.500000) translate(4.617009, 6.000000)">
                    <path d="M1.70710678,11.3137085 L21.5060967,11.3137085" id="Shape" fill="#000000"></path>
                    <g id="Group-Copy-3" transform="translate(1.040216, 0.073480)" stroke-linecap="square">
                        <path d="M0.666891076,11.2402288 L3.4953182,8.41180171" id="Line"></path>
                        <path d="M0.666891076,11.2402288 L3.4953182,14.068656" id="Line"></path>
                        <path d="M10.566386,21.1397238 L13.3948131,18.3112967" id="Line-Copy-15"></path>
                        <path d="M7.73795889,18.3112967 L10.566386,21.1397238" id="Line-Copy-14"></path>
                        <path d="M17.6374538,14.068656 L20.4658809,11.2402288" id="Line-Copy-17"></path>
                        <path d="M17.6374538,8.41180171 L20.4658809,11.2402288" id="Line-Copy-16"></path>
                        <path d="M7.73795889,4.16916103 L10.566386,1.3407339" id="Line-Copy-13"></path>
                        <path d="M10.566386,1.3407339 L13.3948131,4.16916103" id="Line-Copy-12"></path>
                    </g>
                    <path d="M1.80225669,10.6451661 L21.6012466,10.6451661" id="Shape-Copy" fill="#000000" transform="translate(11.319905, 10.931862) rotate(90.000000) translate(-11.319905, -10.931862) "></path>
                </g>
            </g>
        </g>
    </g>
</svg>