<?xml version="1.0" encoding="UTF-8" standalone="no"?>
<svg width="25px" height="17px" viewBox="0 0 25 19" version="1.1" xmlns="http://www.w3.org/2000/svg" xmlns:xlink="http://www.w3.org/1999/xlink">
    <!-- Generator: Sketch 41.2 (35397) - http://www.bohemiancoding.com/sketch -->
    <title>静音</title>
    <desc>Created with Sketch.</desc>
    <defs></defs>
    <g stroke="none" stroke-width="1" fill-rule="evenodd"  fill="#FFFFFF" opacity="0.8">
        <g transform="translate(-923.000000, -545.000000)">
            <g transform="translate(146.000000, 543.000000)">
                <g transform="translate(777.000000, 2.000000)">
                    <path d="M12.915,19 L12.915,19 C12.385,19 11.795,18.8202751 11.115,18.4505554 L11.04,18.4048539 L6.015,14.8755709 L3.92,14.8755709 C1.76,14.8755709 0,13.0680522 0,10.8466528 L0,8.12664523 C0,5.9047323 1.76,4.09721359 3.92,4.09721359 L5.925,4.09721359 L10.61,0.734817978 C11.43,0.240317829 12.145,0 12.785,0 C14.285,0 14.985,1.32020756 15,2.54644469 L15,16.1033486 C15,17.1570498 14.755,17.9457852 14.27,18.4449069 C13.92,18.8079511 13.45,19 12.915,19 Z M11.85,17.1082673 C12.395,17.3978811 12.73,17.4600146 12.915,17.4600146 C13.085,17.4600146 13.16,17.4081511 13.21,17.3568012 C13.39,17.1688603 13.5,16.7010621 13.5,16.1048891 L13.5,2.55568768 C13.495,2.32461285 13.435,1.54049891 12.785,1.54049891 C12.54,1.54049891 12.095,1.62882084 11.39,2.04886354 L6.4,5.63719899 L3.92,5.63719899 C2.585,5.63719899 1.5,6.7540607 1.5,8.12664523 L1.5,10.8466528 C1.5,12.2187238 2.585,13.3355855 3.92,13.3355855 L6.475,13.3355855 L11.85,17.1082673 Z" data-spm-anchor-id="a2h28.8313475.0.i3"></path>
                    <path d="M22.6078873,9.50402685 L25.771831,6.33087248 C26.0760563,6.02533557 26.0760563,5.52852349 25.771831,5.22298658 C25.4777465,4.92701342 24.9605634,4.92701342 24.6664789,5.22298658 L21.5025352,8.39563758 L18.3335211,5.22197987 C18.0394366,4.92600671 17.5222535,4.92600671 17.228169,5.22197987 C16.9239437,5.52751678 16.9239437,6.02432886 17.228169,6.32986577 L20.3971831,9.50402685 L17.2433803,12.6625839 C16.9391549,12.9681208 16.9391549,13.4649329 17.2433803,13.7704698 C17.3904225,13.9184564 17.588169,14 17.7960563,14 C18.0039437,14 18.2016901,13.9184564 18.3487324,13.7704698 L21.5025352,10.6119128 L24.6512676,13.7694631 C24.7983099,13.9174497 24.9960563,13.9984899 25.2039437,13.9984899 C25.411831,13.9984899 25.6095775,13.9169463 25.7566197,13.7694631 C25.903662,13.6214765 25.9847887,13.4246644 25.9847887,13.2152685 C25.9847887,13.0063758 25.903662,12.8095638 25.7566197,12.6615772 L22.6078873,9.50402685 Z"></path>
                </g>
            </g>
        </g>
    </g>
</svg>