<?xml version="1.0" encoding="utf-8"?>
<!-- Generator: Adobe Illustrator 21.1.0, SVG Export Plug-In . SVG Version: 6.00 Build 0)  -->
<svg version="1.1" id="图层_1" xmlns="http://www.w3.org/2000/svg" xmlns:xlink="http://www.w3.org/1999/xlink" x="0px" y="0px"
	 viewBox="0 0 44 44" style="enable-background:new 0 0 44 44;" xml:space="preserve">
<title>播放</title>
<desc>Created with Sketch.</desc>
<g id="Page-1">
	<g id="播放页交互细节" transform="translate(-255.000000, -1282.000000)">
		<g id="播控" transform="translate(252.000000, 607.000000)">
			<g id="播放条-copy-8" transform="translate(0.000000, 525.000000)">
				<g id="暂停" transform="translate(3.000000, 150.000000)">
					<path id="Combined-Shape" d="M22,44C9.8,44,0,34.2,0,22S9.8,0,22,0s22,9.8,22,22S34.2,44,22,44z M22,40c9.9,0,18-8.1,18-18
						S31.9,4,22,4S4,12.1,4,22S12.1,40,22,40z M30,20.9c0.7,0.4,0.7,1.8,0,2.3c-2.1,1.4-8.6,5.6-10.9,7.1c-1,0.6-2.1,0.1-2.1-1.3V15
						c0-1.5,1.1-2,2-1.3C21.4,15.2,27.9,19.6,30,20.9z" fill="#ffffff"/>
				</g>
			</g>
		</g>
	</g>
</g>
</svg>
